<svg xmlns="http://www.w3.org/2000/svg" viewBox="0 0 64 64" role="img" aria-label="Поволжский центр беспилотной авиации">
  <path fill="#0aa7c9" d="M12.8 45.7 41.2 17.3c1.3-1.3 3.5-1.3 4.8 0l1 1c1.3 1.3 1.3 3.5 0 4.8L18.6 51.5c-1.3 1.3-3.5 1.3-4.8 0l-1-1c-1.3-1.3-1.3-3.5 0-4.8Z"/>
  <path fill="#0aa7c9" d="M39.4 14.6 55 9.8c1.4-.4 2.7.9 2.3 2.3l-4.8 15.6c-.4 1.2-1.9 1.6-2.8.7L38.7 17.4c-.9-.9-.5-2.4.7-2.8Z"/>
  <path fill="#0aa7c9" d="M16.5 36.7 28.9 49c1.2 1.2.4 3.3-1.4 3.3H15.1c-1.1 0-2-.9-2-2V38.1c0-1.8 2.1-2.6 3.4-1.4Z"/>
</svg>
